<?xml version="1.0" encoding="UTF-8"?>
<!DOCTYPE svg PUBLIC "-//W3C//DTD SVG 1.1//EN" "http://www.w3.org/Graphics/SVG/1.1/DTD/svg11.dtd">
<!-- Creator: CorelDRAW X6 -->
<svg xmlns="http://www.w3.org/2000/svg" xml:space="preserve" width="7.293in" height="7.31772in" version="1.1" style="shape-rendering:geometricPrecision; text-rendering:geometricPrecision; image-rendering:optimizeQuality; fill-rule:evenodd; clip-rule:evenodd"
viewBox="0 0 7293 7318"
 xmlns:xlink="http://www.w3.org/1999/xlink">
 <defs>
  <style type="text/css">
   <![CDATA[
    .fil0 {fill:#F1C40E}
    .fil1 {fill:#373435;fill-rule:nonzero}
   ]]>
  </style>
 </defs>
 <g id="Layer_x0020_1">
  <metadata id="CorelCorpID_0Corel-Layer"/>
  <circle class="fil0" cx="3647" cy="3659" r="3611"/>
  <path class="fil1" d="M4253 3572c135,-97 260,-169 375,-212 115,-44 232,-65 352,-65 280,0 510,90 693,269 182,178 274,404 274,677 0,294 -96,541 -290,738 -194,198 -436,297 -726,297 -341,0 -613,-109 -814,-325 -201,-216 -301,-507 -301,-871 0,-247 64,-505 189,-775 127,-270 315,-549 564,-837 125,-142 226,-248 303,-319 79,-70 135,-105 173,-105 25,0 45,9 60,28 15,19 22,44 22,73 0,8 -121,159 -362,452 -241,293 -412,619 -513,976zm-2477 0c133,-97 259,-169 375,-212 118,-44 236,-65 357,-65 281,0 510,90 690,269 180,178 270,404 270,677 0,294 -96,541 -290,738 -194,198 -436,297 -726,297 -339,0 -609,-107 -808,-322 -200,-215 -300,-507 -300,-874 0,-250 62,-509 188,-779 125,-270 313,-548 562,-833 120,-137 220,-242 302,-315 81,-73 140,-109 178,-109 22,0 41,9 54,26 14,18 21,44 21,75 0,8 -121,159 -362,452 -241,293 -412,619 -513,976z"/>
 </g>
</svg>
