<?xml version="1.0" encoding="UTF-8"?>
<!DOCTYPE svg PUBLIC "-//W3C//DTD SVG 1.1//EN" "http://www.w3.org/Graphics/SVG/1.1/DTD/svg11.dtd">
<!-- Creator: CorelDRAW X6 -->
<svg xmlns="http://www.w3.org/2000/svg" xml:space="preserve" width="11.6929in" height="8.26772in" version="1.1" style="shape-rendering:geometricPrecision; text-rendering:geometricPrecision; image-rendering:optimizeQuality; fill-rule:evenodd; clip-rule:evenodd"
viewBox="0 0 11693 8268"
 xmlns:xlink="http://www.w3.org/1999/xlink">
 <defs>
  <style type="text/css">
   <![CDATA[
    .fil0 {fill:#050504}
   ]]>
  </style>
 </defs>
 <g id="Layer_x0020_1">
  <metadata id="CorelCorpID_0Corel-Layer"/>
  <path class="fil0" d="M1621 1919c0,-148 252,-211 252,17 0,133 -252,137 -252,-17zm-453 470c-62,-90 -203,-1 -240,79 -16,34 -19,63 -35,100 -24,57 -32,47 -61,90 86,-2 99,-15 134,-67 52,37 -51,47 -130,139 -51,59 -71,107 -71,214 103,-37 64,-163 269,-168 -15,64 -20,81 -20,165 32,-54 39,-92 177,-143 100,-53 216,-137 155,-270 -11,-23 -43,73 -127,80 15,-43 5,-66 -50,-84 35,63 -3,74 -67,151 -1,0 -95,-248 67,-285zm755 -873c0,-322 437,-297 437,-17 0,308 -437,273 -437,17zm-1058 655c0,56 63,81 101,101 118,-28 150,-155 302,-168 -22,41 -46,64 -11,110 4,5 87,76 100,86 69,57 132,102 179,173 57,-5 61,-13 101,-34 -12,139 -99,203 -151,302 104,155 141,122 332,-71 66,-66 119,-151 149,-254 51,-176 25,-212 84,-280l203 -238c135,-152 279,-334 373,-529 33,-69 60,-140 78,-212 16,-63 80,-313 -10,-313 -251,0 -448,130 -594,253 -222,187 -366,358 -568,549 -98,93 -150,77 -280,123 -93,33 -158,92 -225,161 -31,33 -163,200 -163,240z"/>
  </g>
</svg>
