<?xml version="1.0" encoding="UTF-8"?>
<!DOCTYPE svg PUBLIC "-//W3C//DTD SVG 1.1//EN" "http://www.w3.org/Graphics/SVG/1.1/DTD/svg11.dtd">
<!-- Creator: CorelDRAW X6 -->
<svg xmlns="http://www.w3.org/2000/svg" xml:space="preserve" width="11.6929in" height="8.26772in" version="1.1" style="shape-rendering:geometricPrecision; text-rendering:geometricPrecision; image-rendering:optimizeQuality; fill-rule:evenodd; clip-rule:evenodd"
viewBox="0 0 11693 8268"
 xmlns:xlink="http://www.w3.org/1999/xlink">
 <defs>
  <style type="text/css">
   <![CDATA[
    .fil0 {fill:#050504}
   ]]>
  </style>
 </defs>
 <g id="Layer_x0020_1">
  <metadata id="CorelCorpID_0Corel-Layer"/>
  <path class="fil0" d="M1621 1919c0,-148 252,-211 252,17 0,133 -252,137 -252,-17zm-453 470c-62,-90 -203,-1 -240,79 -16,34 -19,63 -35,100 -24,57 -32,47 -61,90 86,-2 99,-15 134,-67 52,37 -51,47 -130,139 -51,59 -71,107 -71,214 103,-37 64,-163 269,-168 -15,64 -20,81 -20,165 32,-54 39,-92 177,-143 100,-53 216,-137 155,-270 -11,-23 -43,73 -127,80 15,-43 5,-66 -50,-84 35,63 -3,74 -67,151 -1,0 -95,-248 67,-285zm755 -873c0,-322 437,-297 437,-17 0,308 -437,273 -437,17zm-1058 655c0,56 63,81 101,101 118,-28 150,-155 302,-168 -22,41 -46,64 -11,110 4,5 87,76 100,86 69,57 132,102 179,173 57,-5 61,-13 101,-34 -12,139 -99,203 -151,302 104,155 141,122 332,-71 66,-66 119,-151 149,-254 51,-176 25,-212 84,-280l203 -238c135,-152 279,-334 373,-529 33,-69 60,-140 78,-212 16,-63 80,-313 -10,-313 -251,0 -448,130 -594,253 -222,187 -366,358 -568,549 -98,93 -150,77 -280,123 -93,33 -158,92 -225,161 -31,33 -163,200 -163,240z"/>
  <g id="_412690552">
   <path class="fil0" d="M4677 2029c40,4 34,38 34,76 0,150 1,301 0,451 0,44 0,66 46,66l451 0c33,0 79,7 91,-17 10,-20 5,-619 4,-668 0,-103 17,-121 -50,-172l-505 -392c-41,-35 -85,-63 -126,-97 -23,-19 -41,-33 -63,-51 -53,-41 -62,-26 -143,42l-443 344c-44,34 -82,61 -126,97 -145,120 -123,40 -123,325 0,150 0,300 0,451 0,144 -14,137 86,138l451 0c48,0 56,-8 56,-58l0 -446c0,-38 -9,-76 23,-86l338 -2z"/>
   <path class="fil0" d="M4907 1122c-20,-11 -46,-34 -66,-49 -24,-18 -43,-33 -69,-54l-204 -158c-29,-18 -63,-24 -98,-7 -21,11 -111,84 -139,105 -224,172 -462,353 -683,530 -61,48 -175,115 -186,176 -7,37 9,71 28,89 62,60 126,12 169,-22 92,-74 182,-142 273,-212 47,-36 92,-73 137,-108 46,-36 92,-68 138,-106l204 -158c95,-76 95,-95 223,14 62,53 197,152 273,212 48,38 90,70 138,106 93,71 181,144 275,214 24,18 41,31 66,52 116,96 212,-20 170,-107 -20,-41 -120,-103 -162,-137l-203 -159c-19,-13 -19,-13 -19,-42 1,-81 0,-163 0,-245 0,-95 10,-80 -166,-80 -38,0 -88,-10 -96,26 -6,27 1,88 -2,120z"/>
  </g>
  <g id="_412694320">
   <path class="fil0" d="M7219 2042c57,-44 32,7 167,6 137,-1 104,-52 167,-2 59,47 349,266 361,286l-1061 0 366 -291zm482 -107c26,-21 69,-43 101,-65 33,-23 67,-43 96,-65l186 -138 -1 570c-44,-29 -373,-288 -383,-302zm-1018 -268c21,9 69,53 93,71l192 136c29,19 69,40 99,62 -14,18 -251,199 -290,230 -31,25 -61,50 -94,73l1 -572zm1349 -188c-19,33 -242,187 -297,225 -60,42 -258,169 -353,168 -95,-1 -291,-128 -352,-169 -41,-27 -283,-203 -294,-225l1296 0zm-1456 -173c-55,15 -69,50 -69,117l0 557c0,123 0,245 0,368 0,68 -9,115 38,146 38,24 121,15 173,15 370,0 739,0 1109,0 63,0 329,8 370,-2 54,-14 65,-53 65,-118 -4,-299 0,-623 0,-925 0,-67 7,-113 -38,-145 -36,-25 -120,-16 -172,-16 -370,0 -739,0 -1109,0 -65,0 -324,-8 -366,3z"/>
   <path class="fil0" d="M6944 1215l439 -7c-4,-5 -1,-2 -7,-8l-148 -112c-18,-14 -42,-28 -54,-47l1292 -1c-8,21 -31,32 -57,51l-116 90c-20,15 -45,29 -59,45 29,12 55,30 71,50 24,31 23,48 42,80 16,-6 155,-111 173,-128 7,29 7,528 1,571 -28,-16 -147,-122 -173,-132 -4,57 -3,148 -1,205 3,56 -4,132 1,197 68,5 153,1 223,1 67,0 129,-6 127,-103 -3,-151 0,-306 0,-458 0,-153 0,-305 0,-458 0,-209 -3,-187 -270,-187l-1374 0c-85,0 -110,35 -109,119 0,77 0,154 0,231z"/>
  </g>
  <g id="_412692904">
   <path class="fil0" d="M10113 997c-219,49 -379,203 -448,393 -45,125 -35,247 -36,388l2 416 1224 -2c5,-137 0,-282 0,-420 0,-138 9,-261 -37,-384 -81,-218 -233,-332 -448,-392 0,-70 17,-223 -129,-222 -148,1 -126,162 -128,223z"/>
   <path class="fil0" d="M9449 2366c13,69 66,84 145,83 74,-1 149,1 224,0l894 0c72,0 154,4 224,0 61,-3 113,-55 100,-123 -14,-70 -69,-82 -147,-81l-1117 0c-71,0 -153,-3 -223,0 -60,3 -111,54 -98,121z"/>
   <path class="fil0" d="M9836 2501c11,334 496,334 510,-1l-510 1z"/>
  </g>
  <g id="_412690192">
   <path class="fil0" d="M1765 3851c132,-25 265,28 342,89 71,56 143,150 164,279 44,266 -149,475 -368,511 -268,44 -477,-151 -511,-369 -38,-243 116,-461 372,-510zm687 481c27,-358 -251,-638 -573,-662 -356,-26 -646,246 -666,573 -22,362 243,643 574,667 360,26 640,-249 665,-578z"/>
   <path class="fil0" d="M1378 4893c16,-84 -58,-161 -146,-147 -46,7 -70,35 -95,59 -102,95 -218,192 -322,286 -133,119 97,353 219,219 65,-72 145,-171 213,-240 27,-27 45,-52 73,-81 24,-26 48,-47 58,-95z"/>
   <path class="fil0" d="M1796 3952c-122,14 -205,80 -250,154 -32,52 -82,184 -37,227 16,15 50,22 75,7 37,-22 35,-121 111,-188 23,-20 29,-26 59,-43 36,-20 114,-43 130,-71 15,-26 6,-57 -9,-72 -19,-19 -48,-18 -80,-15z"/>
  </g>
  <path class="fil0" d="M3872 4098c89,-22 164,43 181,111 22,93 -41,168 -111,185 -192,46 -273,-245 -69,-296zm-494 555c45,407 389,752 859,713 412,-34 755,-402 714,-862 -36,-405 -400,-751 -858,-710 -440,39 -762,442 -715,859z"/>
  <path class="fil0" d="M4456 3563c-78,-13 -165,-47 -253,-26 -50,12 -48,35 -63,81 -12,37 -24,73 -33,107 121,23 214,-29 475,110 37,20 97,70 122,79 13,-29 21,-65 32,-99 31,-97 26,-119 -160,-207 72,-133 101,-182 226,-113 29,16 56,28 89,44 109,53 281,118 424,108l33 -79c-19,-13 -28,-24 -44,-37 -21,-17 -39,-11 -70,-15 -323,-43 -447,-266 -635,-147 -60,38 -82,85 -115,141 -12,19 -16,39 -27,56z"/>
  <path class="fil0" d="M5471 3451c-41,-1 -111,-19 -143,-4 -8,23 24,39 40,54 19,17 34,33 54,46 -7,37 -56,111 -46,137 15,6 14,3 32,-7 11,-6 21,-11 31,-17 22,-12 43,-25 65,-34 109,84 131,132 109,18 -5,-25 -11,-48 -12,-73 52,-42 112,-51 116,-86 -20,-9 -78,-13 -105,-16 -2,0 -16,-2 -18,-3 -26,-6 -20,-10 -35,-72 -6,-27 -7,-50 -23,-65 -23,8 -16,12 -37,56 -10,22 -24,44 -30,66z"/>
 </g>
</svg>
