<?xml version="1.0" encoding="UTF-8"?>
<!DOCTYPE svg PUBLIC "-//W3C//DTD SVG 1.1//EN" "http://www.w3.org/Graphics/SVG/1.1/DTD/svg11.dtd">
<!-- Creator: CorelDRAW X6 -->
<svg xmlns="http://www.w3.org/2000/svg" xml:space="preserve" width="2.193in" height="1.86772in" version="1.1" style="shape-rendering:geometricPrecision; text-rendering:geometricPrecision; image-rendering:optimizeQuality; fill-rule:evenodd; clip-rule:evenodd"
viewBox="0 0 2193 1868"
 xmlns:xlink="http://www.w3.org/1999/xlink">
 <defs>
  <style type="text/css">
   <![CDATA[
    .fil0 {fill:#FFF}
   ]]>
  </style>
 </defs>
 <g id="Layer_x0020_1">
  <metadata id="CorelCorpID_0Corel-Layer"/>
  <g id="_583227880">
   <path class="fil0" d="M984 265c-192,42 -331,177 -391,343 -40,109 -30,216 -31,339l1 364 1069 -2c5,-119 0,-246 0,-367 0,-120 8,-228 -32,-335 -70,-190 -204,-290 -392,-342 0,-61 15,-195 -113,-194 -129,1 -110,142 -112,195z"/>
   <path class="fil0" d="M404 1461c11,61 58,73 127,72 65,-1 130,1 195,0l781 0c63,0 134,3 195,0 53,-3 99,-48 87,-107 -12,-61 -60,-71 -128,-71l-976 0c-62,0 -133,-3 -195,0 -53,3 -97,47 -86,106z"/>
   <path class="fil0" d="M741 1579c9,292 433,292 446,-1l-446 1z"/>
  </g>
 </g>
</svg>
