<?xml version="1.0" encoding="UTF-8"?>
<!DOCTYPE svg PUBLIC "-//W3C//DTD SVG 1.1//EN" "http://www.w3.org/Graphics/SVG/1.1/DTD/svg11.dtd">
<!-- Creator: CorelDRAW X6 -->
<svg xmlns="http://www.w3.org/2000/svg" xml:space="preserve" width="2.193in" height="1.86772in" version="1.1" style="shape-rendering:geometricPrecision; text-rendering:geometricPrecision; image-rendering:optimizeQuality; fill-rule:evenodd; clip-rule:evenodd"
viewBox="0 0 2193 1868"
 xmlns:xlink="http://www.w3.org/1999/xlink">
 <defs>
  <style type="text/css">
   <![CDATA[
    .fil0 {fill:#FFF}
   ]]>
  </style>
 </defs>
 <g id="Layer_x0020_1">
  <metadata id="CorelCorpID_0Corel-Layer"/>
  <g id="_460365256">
   <path class="fil0" d="M728 1275c55,-43 30,7 161,6 132,-1 100,-50 161,-2 57,46 336,256 347,275l-1020 0 352 -280zm464 -103c25,-20 67,-41 97,-62 32,-22 64,-41 92,-63l179 -132 -1 548c-42,-28 -359,-277 -368,-291zm-980 -258c21,9 67,51 90,68l185 131c28,18 67,38 95,60 -13,18 -241,192 -279,221 -30,24 -59,48 -91,71l1 -550zm1298 -181c-18,31 -233,180 -286,217 -58,40 -248,163 -340,162 -92,-1 -280,-123 -339,-163 -39,-26 -272,-195 -283,-216l1247 0zm-1401 -166c-53,14 -66,48 -66,113l0 536c0,118 0,236 0,354 0,65 -9,111 37,140 36,24 116,14 166,14 356,0 711,0 1067,0 61,0 316,8 356,-2 52,-13 63,-51 62,-113 -4,-288 0,-599 0,-890 0,-64 7,-109 -37,-140 -34,-24 -115,-15 -165,-15 -356,0 -711,0 -1067,0 -63,0 -312,-8 -352,3z"/>
   <path class="fil0" d="M464 479l423 -7c-4,-5 -1,-2 -7,-8l-143 -108c-18,-14 -40,-27 -52,-45l1243 -1c-8,20 -30,30 -55,49l-112 87c-19,14 -43,27 -57,43 28,12 53,29 68,48 23,30 22,46 40,77 16,-6 149,-107 167,-124 6,27 6,508 1,549 -27,-16 -142,-117 -166,-127 -4,55 -3,142 0,198 3,54 -4,127 0,189 65,5 147,1 215,1 65,0 124,-5 122,-99 -3,-145 0,-295 0,-441 0,-147 0,-294 0,-441 0,-201 -3,-179 -260,-179l-1322 0c-81,0 -105,34 -105,115 0,74 0,148 0,223z"/>
  </g>
 </g>
</svg>
