<?xml version="1.0" encoding="UTF-8"?>
<!DOCTYPE svg PUBLIC "-//W3C//DTD SVG 1.1//EN" "http://www.w3.org/Graphics/SVG/1.1/DTD/svg11.dtd">
<!-- Creator: CorelDRAW X6 -->
<svg xmlns="http://www.w3.org/2000/svg" xml:space="preserve" width="2.193in" height="1.86772in" version="1.1" style="shape-rendering:geometricPrecision; text-rendering:geometricPrecision; image-rendering:optimizeQuality; fill-rule:evenodd; clip-rule:evenodd"
viewBox="0 0 2193 1868"
 xmlns:xlink="http://www.w3.org/1999/xlink">
 <defs>
  <style type="text/css">
   <![CDATA[
    .fil0 {fill:#FFF}
   ]]>
  </style>
 </defs>
 <g id="Layer_x0020_1">
  <metadata id="CorelCorpID_0Corel-Layer"/>
  <path class="fil0" d="M979 956c0,-131 223,-187 223,15 0,118 -223,122 -223,-15zm-401 416c-55,-79 -179,-1 -213,70 -14,30 -17,56 -31,88 -22,50 -28,42 -54,80 76,-2 88,-13 119,-59 46,33 -45,42 -115,123 -45,52 -63,95 -63,189 91,-33 56,-145 238,-149 -13,57 -18,71 -18,146 28,-48 35,-82 157,-126 88,-47 191,-121 137,-239 -9,-21 -38,65 -112,71 13,-38 5,-58 -45,-74 31,56 -2,65 -59,134 0,0 -84,-219 59,-253zm669 -773c0,-285 386,-263 386,-15 0,272 -386,242 -386,15zm-936 580c0,49 56,71 89,89 105,-24 133,-137 268,-149 -19,37 -40,56 -10,97 3,4 77,67 89,76 61,51 117,90 159,153 50,-4 54,-11 89,-30 -10,123 -87,180 -134,268 92,137 124,108 294,-63 58,-58 105,-134 131,-225 45,-155 22,-187 74,-248l180 -211c120,-134 247,-296 330,-468 30,-61 53,-124 69,-188 14,-56 71,-277 -9,-277 -222,0 -397,115 -526,224 -196,165 -324,317 -503,486 -87,82 -133,68 -248,109 -83,29 -140,82 -199,143 -28,29 -145,177 -145,212z"/>
 </g>
</svg>
