<?xml version="1.0" encoding="UTF-8"?>
<!DOCTYPE svg PUBLIC "-//W3C//DTD SVG 1.1//EN" "http://www.w3.org/Graphics/SVG/1.1/DTD/svg11.dtd">
<!-- Creator: CorelDRAW X6 -->
<svg xmlns="http://www.w3.org/2000/svg" xml:space="preserve" width="2.193in" height="1.86772in" version="1.1" style="shape-rendering:geometricPrecision; text-rendering:geometricPrecision; image-rendering:optimizeQuality; fill-rule:evenodd; clip-rule:evenodd"
viewBox="0 0 2193 1868"
 xmlns:xlink="http://www.w3.org/1999/xlink">
 <defs>
  <style type="text/css">
   <![CDATA[
    .fil0 {fill:#FFF}
   ]]>
  </style>
 </defs>
 <g id="Layer_x0020_1">
  <metadata id="CorelCorpID_0Corel-Layer"/>
  <g id="_458225816">
   <path class="fil0" d="M1260 1230c40,4 34,38 34,76 0,150 1,301 0,451 0,44 0,66 46,66l451 0c33,0 79,7 91,-17 10,-20 5,-619 4,-668 0,-103 17,-121 -50,-172l-505 -392c-41,-35 -85,-63 -126,-97 -23,-19 -41,-33 -63,-51 -53,-41 -62,-26 -143,42l-443 344c-44,34 -82,61 -126,97 -145,120 -123,40 -123,325 0,150 0,300 0,451 0,144 -14,137 86,138l451 0c48,0 56,-8 56,-58l0 -446c0,-38 -9,-76 23,-86l338 -2z"/>
   <path class="fil0" d="M1490 323c-20,-11 -46,-34 -66,-49 -24,-18 -43,-33 -69,-54l-204 -158c-29,-18 -63,-24 -98,-7 -21,11 -111,84 -139,105 -224,172 -462,353 -683,530 -61,48 -175,115 -186,176 -7,37 9,71 28,89 62,60 126,12 169,-22 92,-74 182,-142 273,-212 47,-36 92,-73 137,-108 46,-36 92,-68 138,-106l204 -158c95,-76 95,-95 223,14 62,53 197,152 273,212 48,38 90,70 138,106 93,71 181,144 275,214 24,18 41,31 66,52 116,96 212,-20 170,-107 -20,-41 -120,-103 -162,-137l-203 -159c-19,-13 -19,-13 -19,-42 1,-81 0,-163 0,-245 0,-95 10,-80 -166,-80 -38,0 -88,-10 -96,26 -6,27 1,88 -2,120z"/>
  </g>
 </g>
</svg>
