<?xml version="1.0" encoding="UTF-8"?>
<!DOCTYPE svg PUBLIC "-//W3C//DTD SVG 1.1//EN" "http://www.w3.org/Graphics/SVG/1.1/DTD/svg11.dtd">
<!-- Creator: CorelDRAW X6 -->
<svg xmlns="http://www.w3.org/2000/svg" xml:space="preserve" width="2.193in" height="1.86772in" version="1.1" style="shape-rendering:geometricPrecision; text-rendering:geometricPrecision; image-rendering:optimizeQuality; fill-rule:evenodd; clip-rule:evenodd"
viewBox="0 0 2193 1868"
 xmlns:xlink="http://www.w3.org/1999/xlink">
 <defs>
  <style type="text/css">
   <![CDATA[
    .fil3 {fill:#D2D3D5}
    .fil5 {fill:#020202}
    .fil1 {fill:#050504}
    .fil9 {fill:#050505}
    .fil7 {fill:#8CC749}
    .fil6 {fill:#9F96C9}
    .fil2 {fill:#EB665F}
    .fil0 {fill:#F1C40E}
    .fil4 {fill:#F2DFD5}
    .fil8 {fill:white}
   ]]>
  </style>
 </defs>
 <g id="Layer_x0020_1">
  <metadata id="CorelCorpID_0Corel-Layer"/>
  <circle class="fil0" cx="1097" cy="934" r="3611"/>
  <g id="_187902568">
   <path class="fil1" d="M-584 309l2362 0c76,0 139,63 139,139l0 101c13,-6 28,-11 42,-16l1010 -309c72,-22 136,20 136,95l0 1694c0,75 -64,110 -136,89l-1010 -305c-15,-4 -29,-9 -42,-15l0 121c0,76 -63,139 -139,139l-2362 0c-76,0 -139,-62 -139,-139l0 -1455c0,-76 62,-139 139,-139z"/>
   <polygon class="fil2" points="1940,692 1940,1649 2973,1964 2973,377 "/>
   <path class="fil3" d="M-498 444l2201 0c50,0 91,41 91,91l0 1283c0,50 -41,91 -91,91l-2201 0c-50,0 -91,-41 -91,-91l0 -1283c0,-50 41,-91 91,-91z"/>
   <g>
    <circle class="fil1" cx="1367" cy="-361" r="809"/>
    <circle class="fil4" cx="1367" cy="-361" r="658"/>
    <circle class="fil5" cx="1367" cy="-361" r="286"/>
    <circle class="fil6" cx="1367" cy="-361" r="153"/>
    <circle class="fil1" cx="-104" cy="-361" r="809"/>
    <circle class="fil7" cx="-104" cy="-361" r="658"/>
    <circle class="fil5" cx="-104" cy="-361" r="286"/>
    <circle class="fil8" cx="-104" cy="-361" r="153"/>
   </g>
   <g>
    <path class="fil9" d="M632 1918l0 0c45,0 81,37 81,81l0 868c0,45 -37,81 -81,81l0 0c-45,0 -81,-36 -81,-81l0 -868c0,-45 36,-81 81,-81z"/>
    <path class="fil9" d="M668 1925l0 0c40,20 51,72 29,111l-564 963c-23,38 -71,49 -111,29l0 0c-40,-20 -51,-72 -29,-111l564 -963c23,-38 71,-49 111,-29z"/>
    <path class="fil9" d="M594 1925l0 0c-40,20 -51,72 -29,111l564 963c23,38 71,49 111,29l0 0c40,-20 51,-72 29,-111l-564 -963c-23,-38 -71,-49 -111,-29z"/>
   </g>
  </g>
 </g>
</svg>
