<?xml version="1.0" encoding="UTF-8"?>
<!DOCTYPE svg PUBLIC "-//W3C//DTD SVG 1.1//EN" "http://www.w3.org/Graphics/SVG/1.1/DTD/svg11.dtd">
<!-- Creator: CorelDRAW X6 -->
<svg xmlns="http://www.w3.org/2000/svg" xml:space="preserve" width="2.193in" height="1.86772in" version="1.1" style="shape-rendering:geometricPrecision; text-rendering:geometricPrecision; image-rendering:optimizeQuality; fill-rule:evenodd; clip-rule:evenodd"
viewBox="0 0 2193 1868"
 xmlns:xlink="http://www.w3.org/1999/xlink">
 <defs>
  <style type="text/css">
   <![CDATA[
    .fil0 {fill:#050504}
   ]]>
  </style>
 </defs>
 <g id="Layer_x0020_1">
  <metadata id="CorelCorpID_0Corel-Layer"/>
  <g id="_458197864">
   <path class="fil0" d="M1247 276c132,-25 265,28 342,89 71,56 143,150 164,279 44,266 -149,475 -368,511 -268,44 -477,-151 -511,-369 -38,-243 116,-461 372,-510zm687 481c27,-358 -251,-638 -573,-662 -356,-26 -646,246 -666,573 -22,362 243,643 574,667 360,26 640,-249 665,-578z"/>
   <path class="fil0" d="M860 1317c16,-84 -58,-161 -146,-147 -46,7 -70,35 -95,59 -102,95 -218,192 -322,286 -133,119 97,353 219,219 65,-72 145,-171 213,-240 27,-27 45,-52 73,-81 24,-26 48,-47 58,-95z"/>
   <path class="fil0" d="M1278 376c-122,14 -205,80 -250,154 -32,52 -82,184 -37,227 16,15 50,22 75,7 37,-22 35,-121 111,-188 23,-20 29,-26 59,-43 36,-20 114,-43 130,-71 15,-26 6,-57 -9,-72 -19,-19 -48,-18 -80,-15z"/>
  </g>
 </g>
</svg>
